HIERARCHY
ROOT pelvis
{
  OFFSET 0 100 0
  CHANNELS 6 Xposition Yposition Zposition Zrotation Xrotation Yrotation
  JOINT pelvis_right_femur
  {
    OFFSET -10.78128 -3.44521 -0.5502486
    CHANNELS 3 Zrotation Xrotation Yrotation
    JOINT right_femur_tibia
    {
      OFFSET -0.8047443 -44.0398 -0.1307829
      CHANNELS 3 Zrotation Xrotation Yrotation
      JOINT right_tibia_foot
      {
        OFFSET 3.006224 -47.83518 -5
        CHANNELS 3 Zrotation Xrotation Yrotation
        End Site
        {
          OFFSET 0 -5 15
        }
      }
    }
  }
  JOINT pelvis_left_femur
  {
    OFFSET 10.78128 -3.44521 -0.5502486
    CHANNELS 3 Zrotation Xrotation Yrotation
    JOINT left_femur_tibia
    {
      OFFSET 0.8047443 -44.0398 -0.1307829
      CHANNELS 3 Zrotation Xrotation Yrotation
      JOINT left_tibia_foot
      {
        OFFSET -4.370144 -48.10324 -4.275266
        CHANNELS 3 Zrotation Xrotation Yrotation
        End Site
        {
          OFFSET 0 -5 15
        }
      }
    }
  }
  JOINT pelvis_spine1
  {
    OFFSET 0 6.468898 -3.129235
    CHANNELS 3 Zrotation Xrotation Yrotation
    JOINT spine1
    {
      OFFSET 0 23.15396 4.99043
      CHANNELS 3 Zrotation Xrotation Yrotation
      JOINT spine2
      {
        OFFSET 0 20.79997 -5.064912
        CHANNELS 3 Zrotation Xrotation Yrotation
        JOINT neck
        {
          OFFSET 0 14.38658 9.616178
          CHANNELS 3 Zrotation Xrotation Yrotation
          End Site
          {
            OFFSET 0 20 0
          }
        }
      }
      JOINT right_manubrium
      {
        OFFSET -5.722621 16.35077 3.967754
        CHANNELS 3 Zrotation Xrotation Yrotation
        JOINT right_clavicle
        {
          OFFSET -13.16364 1.694482 -4.693211
          CHANNELS 3 Zrotation Xrotation Yrotation
          JOINT right_humerus
          {
            OFFSET -28.5034 -0.3100689 -2.792744
            CHANNELS 3 Zrotation Xrotation Yrotation
            JOINT right_radius
            {
              OFFSET -25.15693 0.02248979 -1.271978
              CHANNELS 3 Zrotation Xrotation Yrotation
              End Site
              {
                OFFSET -15 0 0
              }
            }
          }
        }
      }
      JOINT left_manubrium
      {
        OFFSET 5.722621 16.35077 3.967754
        CHANNELS 3 Zrotation Xrotation Yrotation
        JOINT left_clavicle
        {
          OFFSET 13.16364 1.694482 -4.693211
          CHANNELS 3 Zrotation Xrotation Yrotation
          JOINT left_humerus
          {
            OFFSET 29.39168 -1.063119 -2.237045
            CHANNELS 3 Zrotation Xrotation Yrotation
            JOINT left_radius
            {
              OFFSET 24.59957 -0.9528479 0.9047498
              CHANNELS 3 Zrotation Xrotation Yrotation
              End Site
              {
                OFFSET 15 -0 -0
              }
            }
          }
        }
      }
    }
  }
}
MOTION
Frames: 13
Frame Time: 0.0416666666667
-1434.855 113.5822 -162.8665 5.001534 5.572597 135.9279 2.131472 17.30099 -1.495001 -0 20.04343 -0 -13.60917 -12.5821 0.9233834 1.702381 -18.62703 -7.055277 -0 8.603894 -0 -1.58343 -0.5260636 17.73336 -0.1925563 -2.181686 7.160551 -0.7024426 11.80814 -3.748776 -0.008729388 21.78534 5.968476 5.48864 -14.05442 3.496225 2.738222 -25.0022 11.56777 81.73677 28.11275 -6.484238 -0 0 24.27681 -23.22809 10.57296 12.65407 4.71011 -20.70536 -6.175707 -95.54922 9.212572 33.02239 -0 0 1.69438 9.873858 14.14035 -0.07031026
-1431.62 113.5621 -168.2658 5.04624 5.532169 135.4658 2.131472 17.30099 -1.495001 -0 20.04343 -0 -13.60917 -12.5821 0.9233834 1.702381 -18.62703 -7.055277 -0 8.603894 -0 -1.58343 -0.5260636 17.73336 -0.1925563 -2.181686 7.160551 -0.7024426 11.80814 -3.748776 -0.008729388 21.78534 5.968476 5.48864 -14.05442 3.496225 2.738222 -25.0022 11.56777 81.73677 28.11275 -6.484238 -0 0 24.27681 -23.22809 10.57296 12.65407 4.71011 -20.70536 -6.175707 -95.54922 9.212572 33.02239 -0 0 1.69438 9.873858 14.14035 -0.07031026
-1428.341 113.5419 -173.6388 5.090614 5.491384 135.0038 2.131472 17.30099 -1.495001 -0 20.04343 -0 -13.60917 -12.5821 0.9233834 1.702381 -18.62703 -7.055277 -0 8.603894 -0 -1.58343 -0.5260636 17.73336 -0.1925563 -2.181686 7.160551 -0.7024426 11.80814 -3.748776 -0.008729388 21.78534 5.968476 5.48864 -14.05442 3.496225 2.738222 -25.0022 11.56777 81.73677 28.11275 -6.484238 -0 0 24.27681 -23.22809 10.57296 12.65407 4.71011 -20.70536 -6.175707 -95.54922 9.212572 33.02239 -0 0 1.69438 9.873858 14.14035 -0.07031026
-1425.019 113.5217 -178.9853 5.134654 5.450244 134.5419 2.131472 17.30099 -1.495001 -0 20.04343 -0 -13.60917 -12.5821 0.9233834 1.702381 -18.62703 -7.055277 -0 8.603894 -0 -1.58343 -0.5260636 17.73336 -0.1925563 -2.181686 7.160551 -0.7024426 11.80814 -3.748776 -0.008729388 21.78534 5.968476 5.48864 -14.05442 3.496225 2.738222 -25.0022 11.56777 81.73677 28.11275 -6.484238 -0 0 24.27681 -23.22809 10.57296 12.65407 4.71011 -20.70536 -6.175707 -95.54922 9.212572 33.02239 -0 0 1.69438 9.873858 14.14035 -0.07031026
-1421.654 113.5015 -184.3048 5.178355 5.408752 134.08 2.131472 17.30099 -1.495001 -0 20.04343 -0 -13.60917 -12.5821 0.9233834 1.702381 -18.62703 -7.055277 -0 8.603894 -0 -1.58343 -0.5260636 17.73336 -0.1925563 -2.181686 7.160551 -0.7024426 11.80814 -3.748776 -0.008729388 21.78534 5.968476 5.48864 -14.05442 3.496225 2.738222 -25.0022 11.56777 81.73677 28.11275 -6.484238 -0 0 24.27681 -23.22809 10.57296 12.65407 4.71011 -20.70536 -6.175707 -95.54922 9.212572 33.02239 -0 0 1.69438 9.873858 14.14035 -0.07031026
-1418.246 113.4813 -189.597 5.221717 5.36691 133.6183 2.131472 17.30099 -1.495001 -0 20.04343 -0 -13.60917 -12.5821 0.9233834 1.702381 -18.62703 -7.055277 -0 8.603894 -0 -1.58343 -0.5260636 17.73336 -0.1925563 -2.181686 7.160551 -0.7024426 11.80814 -3.748776 -0.008729388 21.78534 5.968476 5.48864 -14.05442 3.496225 2.738222 -25.0022 11.56777 81.73677 28.11275 -6.484238 -0 0 24.27681 -23.22809 10.57296 12.65407 4.71011 -20.70536 -6.175707 -95.54922 9.212572 33.02239 -0 0 1.69438 9.873858 14.14035 -0.07031026
-1414.796 113.4611 -194.8616 5.264735 5.324722 133.1565 2.131472 17.30099 -1.495001 -0 20.04343 -0 -13.60917 -12.5821 0.9233834 1.702381 -18.62703 -7.055277 -0 8.603894 -0 -1.58343 -0.5260636 17.73336 -0.1925563 -2.181686 7.160551 -0.7024426 11.80814 -3.748776 -0.008729388 21.78534 5.968476 5.48864 -14.05442 3.496225 2.738222 -25.0022 11.56777 81.73677 28.11275 -6.484238 -0 0 24.27681 -23.22809 10.57296 12.65407 4.71011 -20.70536 -6.175707 -95.54922 9.212572 33.02239 -0 0 1.69438 9.873858 14.14035 -0.07031026
-1411.304 113.441 -200.0982 5.307408 5.28219 132.6949 2.131472 17.30099 -1.495001 -0 20.04343 -0 -13.60917 -12.5821 0.9233834 1.702381 -18.62703 -7.055277 -0 8.603894 -0 -1.58343 -0.5260636 17.73336 -0.1925563 -2.181686 7.160551 -0.7024426 11.80814 -3.748776 -0.008729388 21.78534 5.968476 5.48864 -14.05442 3.496225 2.738222 -25.0022 11.56777 81.73677 28.11275 -6.484238 -0 0 24.27681 -23.22809 10.57296 12.65407 4.71011 -20.70536 -6.175707 -95.54922 9.212572 33.02239 -0 0 1.69438 9.873858 14.14035 -0.07031026
-1407.769 113.4208 -205.3065 5.349732 5.239318 132.2332 2.131472 17.30099 -1.495001 -0 20.04343 -0 -13.60917 -12.5821 0.9233834 1.702381 -18.62703 -7.055277 -0 8.603894 -0 -1.58343 -0.5260636 17.73336 -0.1925563 -2.181686 7.160551 -0.7024426 11.80814 -3.748776 -0.008729388 21.78534 5.968476 5.48864 -14.05442 3.496225 2.738222 -25.0022 11.56777 81.73677 28.11275 -6.484238 -0 0 24.27681 -23.22809 10.57296 12.65407 4.71011 -20.70536 -6.175707 -95.54922 9.212572 33.02239 -0 0 1.69438 9.873858 14.14035 -0.07031026
-1404.192 113.4006 -210.4862 5.391705 5.196107 131.7717 2.131472 17.30099 -1.495001 -0 20.04343 -0 -13.60917 -12.5821 0.9233834 1.702381 -18.62703 -7.055277 -0 8.603894 -0 -1.58343 -0.5260636 17.73336 -0.1925563 -2.181686 7.160551 -0.7024426 11.80814 -3.748776 -0.008729388 21.78534 5.968476 5.48864 -14.05442 3.496225 2.738222 -25.0022 11.56777 81.73677 28.11275 -6.484238 -0 0 24.27681 -23.22809 10.57296 12.65407 4.71011 -20.70536 -6.175707 -95.54922 9.212572 33.02239 -0 0 1.69438 9.873858 14.14035 -0.07031026
-1400.574 113.3804 -215.6369 5.433324 5.152561 131.3102 2.131472 17.30099 -1.495001 -0 20.04343 -0 -13.60917 -12.5821 0.9233834 1.702381 -18.62703 -7.055277 -0 8.603894 -0 -1.58343 -0.5260636 17.73336 -0.1925563 -2.181686 7.160551 -0.7024426 11.80814 -3.748776 -0.008729388 21.78534 5.968476 5.48864 -14.05442 3.496225 2.738222 -25.0022 11.56777 81.73677 28.11275 -6.484238 -0 0 24.27681 -23.22809 10.57296 12.65407 4.71011 -20.70536 -6.175707 -95.54922 9.212572 33.02239 -0 0 1.69438 9.873858 14.14035 -0.07031026
-1396.915 113.3602 -220.7582 5.474587 5.108682 130.8488 2.131472 17.30099 -1.495001 -0 20.04343 -0 -13.60917 -12.5821 0.9233834 1.702381 -18.62703 -7.055277 -0 8.603894 -0 -1.58343 -0.5260636 17.73336 -0.1925563 -2.181686 7.160551 -0.7024426 11.80814 -3.748776 -0.008729388 21.78534 5.968476 5.48864 -14.05442 3.496225 2.738222 -25.0022 11.56777 81.73677 28.11275 -6.484238 -0 0 24.27681 -23.22809 10.57296 12.65407 4.71011 -20.70536 -6.175707 -95.54922 9.212572 33.02239 -0 0 1.69438 9.873858 14.14035 -0.07031026
-1393.214 113.34 -225.8499 5.515491 5.064474 130.3875 2.131472 17.30099 -1.495001 -0 20.04343 -0 -13.60917 -12.5821 0.9233834 1.702381 -18.62703 -7.055277 -0 8.603894 -0 -1.58343 -0.5260636 17.73336 -0.1925563 -2.181686 7.160551 -0.7024426 11.80814 -3.748776 -0.008729388 21.78534 5.968476 5.48864 -14.05442 3.496225 2.738222 -25.0022 11.56777 81.73677 28.11275 -6.484238 -0 0 24.27681 -23.22809 10.57296 12.65407 4.71011 -20.70536 -6.175707 -95.54922 9.212572 33.02239 -0 0 1.69438 9.873858 14.14035 -0.07031026
